FFmpeg version SVN-r25716, Copyright (c) 2000-2010 the FFmpeg developers  built on Nov 10 2010 12:23:18 with gcc 4.1.2 20080704 (Red Hat 4.1.2-48)  configuration: --enable-libmp3lame --enable-shared --disable-mmx --arch=x86_64  libavutil     50.33. 0 / 50.33. 0  libavcore      0.12. 1 /  0.12. 1  libavcodec    52.94. 4 / 52.94. 4  libavformat   52.84. 0 / 52.84. 0  libavdevice   52. 2. 2 / 52. 2. 2  libavfilter    1.59. 0 /  1.59. 0  libswscale     0.12. 0 /  0.12. 0Input #0, avi, from '/RAID10/data/converted_video_files/47517.avi':  Duration: 00:00:08.00, start: 0.000000, bitrate: 188749 kb/s    Stream #0.0: Video: msvideo1, rgb555le, 1024x1024, 20 tbr, 20 tbn, 20 tbc[buffer @ 0x3420490] w:1024 h:1024 pixfmt:rgb555le[ffsink @ 0x341f920] auto-inserting filter 'auto-inserted scaler 0' between the filter 'src' and the filter 'out'[scale @ 0x341e820] w:1024 h:1024 fmt:rgb555le -> w:1024 h:1024 fmt:yuv420p flags:0x4Output #0, flv, to '/RAID10/data/converted_video_files/47517.flv':  Metadata:    encoder         : Lavf52.84.0    Stream #0.0: Video: flv, yuv420p, 1024x1024, q=2-31, 600 kb/s, 1k tbn, 24 tbcStream mapping:  Stream #0.0 -> #0.0Press [q] to stop encodingframe=    8 fps=  0 q=10.0 size=    1176kB time=0.37 bitrate=25750.9kbits/s    frame=   15 fps= 12 q=17.2 size=    1498kB time=0.75 bitrate=16367.6kbits/s    frame=   23 fps= 13 q=31.0 size=    1554kB time=1.12 bitrate=11327.2kbits/s    frame=   32 fps= 14 q=31.0 size=    1591kB time=1.58 bitrate=8233.9kbits/s    frame=   40 fps= 14 q=31.0 size=    1628kB time=2.00 bitrate=6666.3kbits/s    frame=   47 fps= 14 q=31.0 size=    1635kB time=2.33 bitrate=5740.8kbits/s    frame=   58 fps= 15 q=31.0 size=    1674kB time=2.88 bitrate=4768.7kbits/s    frame=   68 fps= 15 q=31.0 size=    1712kB time=3.37 bitrate=4156.1kbits/s    frame=   77 fps= 16 q=31.0 size=    1749kB time=3.83 bitrate=3738.4kbits/s    frame=   88 fps= 16 q=31.0 size=    1788kB time=4.38 bitrate=3348.0kbits/s    frame=   99 fps= 16 q=24.8 size=    1826kB time=4.96 bitrate=3016.7kbits/s    frame=  109 fps= 17 q=31.0 size=    1842kB time=5.46 bitrate=2764.9kbits/s    frame=  118 fps= 17 q=31.0 size=    1879kB time=5.88 bitrate=2620.0kbits/s    frame=  129 fps= 17 q=31.0 size=    1917kB time=6.46 bitrate=2431.4kbits/s    frame=  140 fps= 17 q=31.0 size=    1955kB time=7.00 bitrate=2288.1kbits/s    frame=  151 fps= 17 q=31.0 size=    1993kB time=7.54 bitrate=2164.9kbits/s    frame=  160 fps= 17 q=31.0 Lsize=    2029kB time=8.00 bitrate=2077.3kbits/s    video:2026kB audio:0kB global headers:0kB muxing overhead 0.133525%